<?xml version="1.0" encoding="UTF-8"?>
<svg xmlns="http://www.w3.org/2000/svg" version="1.1" xmlns:xlink="http://www.w3.org/1999/xlink" viewBox="0 0 500 500">
  <!-- Generator: Adobe Illustrator 29.3.1, SVG Export Plug-In . SVG Version: 2.1.0 Build 151)  -->
  <defs>
    <style>
      .st0 {
        fill: #fff;
      }

      .st1 {
        fill: url(#_Безымянный_градиент_183);
      }

      .st2 {
        fill: none;
      }

      .st3 {
        fill: url(#_Безымянный_градиент_181);
      }

      .st4 {
        fill: url(#_Безымянный_градиент_184);
      }

      .st5 {
        fill: url(#_Безымянный_градиент_18);
      }

      .st6 {
        fill: url(#_Безымянный_градиент_187);
      }

      .st7 {
        fill: url(#_Безымянный_градиент_185);
      }

      .st8 {
        fill: url(#_Безымянный_градиент_861);
      }

      .st9 {
        fill: url(#_Безымянный_градиент_186);
      }

      .st10 {
        fill: url(#_Безымянный_градиент_182);
      }

      .st11 {
        clip-path: url(#clippath);
      }

      .st12 {
        fill: url(#_Безымянный_градиент_86);
      }
    </style>
    <linearGradient id="_Безымянный_градиент_86" data-name="Безымянный градиент 86" x1="244.2924412" y1="154.286799" x2="275.0340143" y2="249.2081473" gradientUnits="userSpaceOnUse">
      <stop offset="0" stop-color="#ddf1fd"/>
      <stop offset=".3076923" stop-color="#9498ef"/>
      <stop offset=".6605351" stop-color="#abc4ed"/>
      <stop offset="1" stop-color="#7949f3"/>
    </linearGradient>
    <linearGradient id="_Безымянный_градиент_861" data-name="Безымянный градиент 86" x1="280.9049311" y1="142.4293449" x2="311.6465041" y2="237.3506932" xlink:href="#_Безымянный_градиент_86"/>
    <clipPath id="clippath">
      <rect class="st2" x="56.974139" y="211.1088585" width="73.4396547" height="73.4396802"/>
    </clipPath>
    <linearGradient id="_Безымянный_градиент_18" data-name="Безымянный градиент 18" x1="66.1509537" y1="215.3874585" x2="105.1587511" y2="293.1029934" gradientUnits="userSpaceOnUse">
      <stop offset="0" stop-color="#cec3ee"/>
      <stop offset=".3511706" stop-color="#9498ef"/>
      <stop offset=".6638796" stop-color="#abc4ed"/>
      <stop offset="1" stop-color="#7949f3"/>
    </linearGradient>
    <linearGradient id="_Безымянный_градиент_181" data-name="Безымянный градиент 18" x1="104.4484022" y1="196.1648009" x2="143.4561997" y2="273.8803358" xlink:href="#_Безымянный_градиент_18"/>
    <linearGradient id="_Безымянный_градиент_182" data-name="Безымянный градиент 18" x1="45.820568" y1="225.5918992" x2="84.8283654" y2="303.3074341" xlink:href="#_Безымянный_градиент_18"/>
    <linearGradient id="_Безымянный_градиент_183" data-name="Безымянный градиент 18" x1="84.1180169" y1="206.3692414" x2="123.1258143" y2="284.0847763" xlink:href="#_Безымянный_градиент_18"/>
    <linearGradient id="_Безымянный_градиент_184" data-name="Безымянный градиент 18" x1="90.1824863" y1="203.3252993" x2="129.1902837" y2="281.0408342" xlink:href="#_Безымянный_градиент_18"/>
    <linearGradient id="_Безымянный_градиент_185" data-name="Безымянный градиент 18" x1="69.1396552" y1="213.8873381" x2="108.1474526" y2="291.602873" xlink:href="#_Безымянный_градиент_18"/>
    <linearGradient id="_Безымянный_градиент_186" data-name="Безымянный градиент 18" x1="75.5118866" y1="210.6889208" x2="114.519684" y2="288.4044557" xlink:href="#_Безымянный_градиент_18"/>
    <linearGradient id="_Безымянный_градиент_187" data-name="Безымянный градиент 18" x1="69.8537404" y1="213.5289169" x2="108.8615378" y2="291.2444518" xlink:href="#_Безымянный_градиент_18"/>
  </defs>
  <g id="_Слой_1" data-name="Слой_1">
    <rect width="500" height="500.0000001"/>
  </g>
  <g id="_Слой_2" data-name="Слой_2">
    <g>
      <g>
        <path class="st0" d="M147.0065726,286.1227734v-11.9731918h1.1534867v5.3060388h7.4053845v-5.3060388h1.1534867v11.9731918h-1.1534867v-5.629015h-7.4053845v5.629015h-1.1534867Z"/>
        <path class="st0" d="M159.3252611,282.6743975c0-.7206545.2153175-1.3457345.6459525-1.8741412.4300858-.5295053,1.0227582-.9425634,1.7763695-1.2424699.753062-.298808,1.6225713-.448212,2.6068799-.448212.6146436,0,1.2534555.0538294,1.9147879.1614881.6607831.1076588,1.2529063.2537671,1.7763695.4383249v-1.1271213c0-1.1007559-.3196806-1.9807014-.957394-2.6387381-.6388119-.6569381-1.5193068-.9865058-2.6414845-.9865058-.5998131,0-1.2226959.1230386-1.8686484.3691157s-1.3072849.5998131-1.9839971,1.0612078l-.4844644-.8305104c.7843709-.522914,1.5418272-.9183951,2.2723688-1.187542.7299923-.2691469,1.4566889-.4042696,2.1800898-.4042696,1.4303235,0,2.5607404.4218466,3.3912509,1.2644411.8305104.841496,1.2457656,1.9905885,1.2457656,3.4450802v5.927823c0,.1845579.0417452.3218777.1268835.4141566.0840397.0911804.2109233.1450098.3806506.1603896v.9458591c-.1384184.0153798-.2537671.0230697-.346046.0230697h-.2306973c-.2927659-.0461395-.519069-.169178-.6805571-.3691157s-.2504714-.4229451-.2653019-.6690223v-.9458591c-.5536736.692092-1.2655397,1.2303858-2.1339504,1.6148814-.86896.3844956-1.7802145.5767433-2.7337634.5767433-.7536113,0-1.4341684-.1614881-2.0416714-.4822673-.6080523-.3218777-1.0842775-.7634983-1.4303235-1.3226647s-.519069-1.1842463-.519069-1.8741412ZM167.5842258,283.6620018c.1532489-.1988391.2685976-.3899884.346046-.5745462.0763498-.1834593.1153487-.3515388.1153487-.505337v-1.9763072c-.5536736-.2131204-1.130417-.3746085-1.73023-.4822673-.5998131-.1065602-1.215006-.1603896-1.8455787-.1603896-1.1996262,0-2.1723999.2372887-2.9183213.7118661-.7464707.4756759-1.1188821,1.1183328-1.1188821,1.9301677,0,.505337.1301792.9722245.3921855,1.401761.261457.4284379.6261785.7733854,1.0958124,1.0337438.4690846.2603584,1.0112233.3899884,1.6264162.3899884.8612701,0,1.6571759-.1647838,2.3877174-.4943514.7299923-.3284691,1.2803702-.7536113,1.649486-1.2743281Z"/>
        <path class="st0" d="M171.3671128,288.8911415v-3.8295758h.1845579c.3537359,0,.6844021-.1153487.9919986-.3449474.3075964-.2306973.5767433-.6294742.8074407-1.197429s.4185509-1.3501287.5652085-2.34762c.1461083-.9974913.2422322-2.2641296.2883717-3.7988162l.0922789-3.2231714h7.4745937v10.9119841h1.6148814v3.8295758h-1.0612078v-2.768368h-9.9199855v2.768368h-1.038138ZM173.5125981,285.0615657h7.105478v-9.873846h-5.2598993l-.0692092,2.2553411c-.0461395,1.5500664-.1466576,2.84307-.2999065,3.8779124-.1537982,1.0359409-.349891,1.8499729-.5882782,2.439899-.2389365.5910246-.5344488,1.0249553-.8881847,1.3006936Z"/>
        <path class="st0" d="M190.9296978,286.3534707c-.8458902,0-1.6302612-.1647838-2.3531128-.4943514-.7234009-.3295676-1.3495794-.7810753-1.8801833-1.3556215s-.9458591-1.2413714-1.2457656-1.9993769c-.2999065-.7591041-.4498598-1.5599534-.4498598-2.402548,0-1.1337126.2537671-2.1597665.7613012-3.0792602s1.2073161-1.6588237,2.0993458-2.2179901c.8914804-.5591664,1.8917182-.8392989,2.9990654-.8392989,1.1375576,0,2.1454852.2834282,3.0221351.851383.8766499.5668563,1.5720376,1.3138763,2.0878109,2.2410598.5146748.9271836.7722868,1.9422519.7722868,3.0463034v.2757382c0,.0922789-.0076899.1680795-.0230697.2295988h-10.5192493c.06097.9030153.3147371,1.7225401.7613012,2.4574759.4460149.7338372,1.018364,1.3116791,1.7186952,1.7324271.6997819.4218466,1.4649281.6316713,2.2954385.6316713s1.6148814-.2153175,2.3531128-.6459525,1.2529063-.9843086,1.5456722-1.6610208l1.0150683.2768368c-.2306973.5690534-.5965174,1.0765876-1.0958124,1.5226024-.5003935.4460149-1.0842775.7964551-1.7532998,1.0502222-.6690223.2526685-1.3726492.3801013-2.1108806.3801013ZM186.1542629,279.7093874h9.4816606c-.0620686-.9337749-.3081457-1.7598911-.7382315-2.4794471-.4311843-.719556-.9963928-1.2853137-1.6956254-1.6983718-.7003312-.4130581-1.4731673-.6206857-2.3185082-.6206857-.8458902,0-1.6148814.2076276-2.3069734.6206857s-1.2540048.9788158-1.6840906,1.6983718c-.430635.719556-.6772615,1.5456722-.7382315,2.4794471ZM188.7611428,271.3581438v-2.0301366h1.0150683v2.0301366h-1.0150683ZM191.8986266,271.3581438v-2.0301366h1.0150683v2.0301366h-1.0150683Z"/>
        <path class="st0" d="M198.4268119,286.1227734l4.5678073-6.1596189-4.1064126-5.8135729h1.3380446l3.7603666,5.3291085h1.822509v-5.3291085h1.1765564v5.3291085h1.8686484l3.7136779-5.3291085h1.3380446l-4.1058633,5.8135729,4.5903277,6.1596189h-1.3380446l-4.1981423-5.629015h-1.8686484v5.629015h-1.1765564v-5.629015h-1.7994392l-4.244831,5.629015h-1.3380446Z"/>
        <path class="st0" d="M217.1358167,286.1227734v-11.9731918h1.1534867v5.3060388h7.4053845v-5.3060388h1.1534867v11.9731918h-1.1534867v-5.629015h-7.4053845v5.629015h-1.1534867Z"/>
        <path class="st0" d="M230.4465038,286.1227734v-11.9731918h1.1534867v4.3601797h2.9529259c1.3380446,0,2.341578.3449474,3.0106003,1.0359409.6690223.6898949,1.0035334,1.5863188,1.0035334,2.6903704,0,.7052747-.1466576,1.3567201-.4383249,1.9554346-.2927659.597616-.7266966,1.0688977-1.30344,1.4138451s-1.30344.5174212-2.1800898.5174212h-4.1986915ZM231.5999905,285.1769143h2.9298562c.6767122,0,1.2259916-.1373198,1.649486-.4130581.4223958-.2757382.7299923-.6360655.9227893-1.0798833.1916985-.4449163.2883717-.9194937.2883717-1.4248307,0-.4899572-.0851383-.9502533-.2537671-1.3786912-.1697273-.4295365-.4657889-.7733854-.8881847-1.0337438-.4234944-.2603584-1.0117726-.3910869-1.7648346-.3910869h-2.8837167v5.721294ZM240.8509537,286.1227734v-11.9501221h1.1529374v11.9501221h-1.1529374Z"/>
        <path class="st0" d="M245.6258393,286.1227734v-11.9501221h1.1534867v10.3846759l7.79757-10.4077456h1.0612078v11.9731918h-1.1534867v-10.2231877l-7.7052911,10.2231877h-1.1534867ZM250.6319716,272.465491c-.9843086,0-1.7571447-.233993-2.3185082-.7030776-.5619128-.4690846-.8420453-1.0645034-.8420453-1.7884536h.8766499c0,.5075341.1993884.9227893.5998131,1.2457656.3998754.3229763.9606896.4844644,1.6840906.4844644.7382315,0,1.2990457-.1570939,1.6840906-.4723803.3839463-.3152864.583884-.7349358.5998131-1.2578498h.8766499c0,.7239502-.281231,1.3193691-.8420453,1.7884536-.5619128.4690846-1.3347489.7030776-2.3185082.7030776Z"/>
        <path class="st0" d="M265.1417355,286.1227734v-11.9731918h1.1534867l5.0522717,8.611602,5.0517224-8.611602h1.130417v11.9731918h-1.1073472v-10.1539785l-4.7056764,8.0128875h-.7613012l-4.7062257-7.9898178v10.1309088h-1.1073472Z"/>
        <path class="st0" d="M280.1370625,282.6743975c0-.7206545.2153175-1.3457345.6459525-1.8741412.4300858-.5295053,1.0227582-.9425634,1.7763695-1.2424699.753062-.298808,1.6225713-.448212,2.6068799-.448212.6146436,0,1.2534555.0538294,1.9147879.1614881.6607831.1076588,1.2529063.2537671,1.7763695.4383249v-1.1271213c0-1.1007559-.3196806-1.9807014-.957394-2.6387381-.6388119-.6569381-1.5193068-.9865058-2.6414845-.9865058-.5998131,0-1.2226959.1230386-1.8686484.3691157s-1.3072849.5998131-1.9839971,1.0612078l-.4844644-.8305104c.7843709-.522914,1.5418272-.9183951,2.2723688-1.187542.7299923-.2691469,1.4566889-.4042696,2.1800898-.4042696,1.4303235,0,2.5607404.4218466,3.3912509,1.2644411.8305104.841496,1.2457656,1.9905885,1.2457656,3.4450802v5.927823c0,.1845579.0417452.3218777.1268835.4141566.0840397.0911804.2109233.1450098.3806506.1603896v.9458591c-.1384184.0153798-.2537671.0230697-.346046.0230697h-.2306973c-.2927659-.0461395-.519069-.169178-.6805571-.3691157s-.2504714-.4229451-.2653019-.6690223v-.9458591c-.5536736.692092-1.2655397,1.2303858-2.1339504,1.6148814-.86896.3844956-1.7802145.5767433-2.7337634.5767433-.7536113,0-1.4341684-.1614881-2.0416714-.4822673-.6080523-.3218777-1.0842775-.7634983-1.4303235-1.3226647s-.519069-1.1842463-.519069-1.8741412ZM288.3960271,283.6620018c.1532489-.1988391.2685976-.3899884.346046-.5745462.0763498-.1834593.1153487-.3515388.1153487-.505337v-1.9763072c-.5536736-.2131204-1.130417-.3746085-1.73023-.4822673-.5998131-.1065602-1.215006-.1603896-1.8455787-.1603896-1.1996262,0-2.1723999.2372887-2.9183213.7118661-.7464707.4756759-1.1188821,1.1183328-1.1188821,1.9301677,0,.505337.1301792.9722245.3921855,1.401761.261457.4284379.6261785.7733854,1.0958124,1.0337438.4690846.2603584,1.0112233.3899884,1.6264162.3899884.8612701,0,1.6571759-.1647838,2.3877174-.4943514.7299923-.3284691,1.2803702-.7536113,1.649486-1.2743281Z"/>
        <path class="st0" d="M293.5164095,286.1227734v-11.9731918h6.9439899v1.038138h-5.7905032v10.9350538h-1.1534867Z"/>
        <path class="st0" d="M301.7523044,282.6743975c0-.7206545.2153175-1.3457345.6459525-1.8741412.4300858-.5295053,1.0227582-.9425634,1.7763695-1.2424699.753062-.298808,1.6225713-.448212,2.6068799-.448212.6146436,0,1.2534555.0538294,1.9147879.1614881.6607831.1076588,1.2529063.2537671,1.7763695.4383249v-1.1271213c0-1.1007559-.3196806-1.9807014-.957394-2.6387381-.6388119-.6569381-1.5193068-.9865058-2.6414845-.9865058-.5998131,0-1.2226959.1230386-1.8686484.3691157s-1.3072849.5998131-1.9839971,1.0612078l-.4844644-.8305104c.7843709-.522914,1.5418272-.9183951,2.2723688-1.187542.7299923-.2691469,1.4566889-.4042696,2.1800898-.4042696,1.4303235,0,2.5607404.4218466,3.3912509,1.2644411.8305104.841496,1.2457656,1.9905885,1.2457656,3.4450802v5.927823c0,.1845579.0417452.3218777.1268835.4141566.0840397.0911804.2109233.1450098.3806506.1603896v.9458591c-.1384184.0153798-.2537671.0230697-.346046.0230697h-.2306973c-.2927659-.0461395-.519069-.169178-.6805571-.3691157s-.2504714-.4229451-.2653019-.6690223v-.9458591c-.5536736.692092-1.2655397,1.2303858-2.1339504,1.6148814-.86896.3844956-1.7802145.5767433-2.7337634.5767433-.7536113,0-1.4341684-.1614881-2.0416714-.4822673-.6080523-.3218777-1.0842775-.7634983-1.4303235-1.3226647s-.519069-1.1842463-.519069-1.8741412ZM310.0112691,283.6620018c.1532489-.1988391.2685976-.3899884.346046-.5745462.0763498-.1834593.1153487-.3515388.1153487-.505337v-1.9763072c-.5536736-.2131204-1.130417-.3746085-1.73023-.4822673-.5998131-.1065602-1.215006-.1603896-1.8455787-.1603896-1.1996262,0-2.1723999.2372887-2.9183213.7118661-.7464707.4756759-1.1188821,1.1183328-1.1188821,1.9301677,0,.505337.1301792.9722245.3921855,1.401761.261457.4284379.6261785.7733854,1.0958124,1.0337438.4690846.2603584,1.0112233.3899884,1.6264162.3899884.8612701,0,1.6571759-.1647838,2.3877174-.4943514.7299923-.3284691,1.2803702-.7536113,1.649486-1.2743281Z"/>
        <path class="st0" d="M318.3625127,286.3534707c-1.0458279,0-1.9532375-.2120218-2.7222286-.6338684-.7689911-.4229451-1.346833-1.0117726-1.7307793-1.7653839l.9683795-.4152552c.2922166.5690534.7338372,1.0150683,1.327059,1.3380446.5910246.3229763,1.3028907.4844644,2.1334011.4844644.9996885,0,1.8038335-.2361901,2.4102379-.709669.6086015-.4734788.9118038-1.1139386.9118038-1.9213793,0-.7129646-.2372887-1.2952008-.7140632-1.7456099-.4767745-.4493105-1.1315155-.682205-1.9620259-.6986834h-1.2215973v-.8535801h1.3138763c.3537359,0,.6767122-.0999688.9689288-.3010051s.522914-.4712817.692092-.8118349.2548656-.7184574.2548656-1.1359097c0-.664628-.2285002-1.2018233-.6811064-1.6115857-.4548033-.4097624-1.1183328-.6151929-1.9949827-.6151929-.7074718,0-1.3050878.1461083-1.7884536.4383249-.485563.2922166-.8656643.7151617-1.1425011,1.2688354l-.8986211-.4613947c.3383561-.7074718.841496-1.2567512,1.5094197-1.6489367.6701208-.3921855,1.4500975-.5888275,2.3421273-.5888275.7382315,0,1.384184.1274328,1.9378576.3822984s.9930971.6097001,1.3160734,1.065602.4833658,1.0073784.4833658,1.655528c0,.6031088-.1428126,1.1468953-.4262408,1.6335569-.2856253.4866615-.6657266.8524816-1.1425011,1.0996573.7074718.2175146,1.2567512.5965174,1.6500352,1.1381069.3910869.542688.5888275,1.1853449.5888275,1.9290692,0,.7118661-.1845579,1.3281575-.5536736,1.8466773-.3691157.5196183-.8810441.9216908-1.5357851,1.2084146-.6525439.2856253-1.4171408.4295365-2.2937907.4295365Z"/>
        <path class="st0" d="M325.5130316,286.1227734v-11.9501221h1.1534867v10.3846759l7.79757-10.4077456h1.0612078v11.9731918h-1.1534867v-10.2231877l-7.7052911,10.2231877h-1.1534867Z"/>
        <path class="st0" d="M339.1011048,286.1227734v-11.9731918h1.1534867v5.3060388h7.4053845v-5.3060388h1.1534867v11.9731918h-1.1534867v-5.629015h-7.4053845v5.629015h-1.1534867Z"/>
        <path class="st0" d="M361.4084387,286.1227734v-10.9350538h-4.4063191v-1.038138h9.9891947v1.038138h-4.4293889v10.9350538h-1.1534867Z"/>
        <path class="st0" d="M374.3263911,286.3534707c-.8458902,0-1.6302612-.1647838-2.3531128-.4943514s-1.3501287-.7810753-1.8807326-1.3556215-.9458591-1.2413714-1.2457656-1.9993769c-.2999065-.7591041-.4493105-1.5599534-.4493105-2.402548,0-1.1337126.2537671-2.1597665.7613012-3.0792602s1.2073161-1.6588237,2.0993458-2.2179901,1.8917182-.8392989,2.9990654-.8392989c1.1381069,0,2.1454852.2834282,3.0221351.851383.8766499.5668563,1.5720376,1.3138763,2.0872616,2.2410598s.7733854,1.9422519.7733854,3.0463034v.2757382c0,.0922789-.0076899.1680795-.0230697.2295988h-10.5197986c.0615193.9030153.3152864,1.7225401.7613012,2.4574759.4460149.7338372,1.018364,1.3116791,1.7181459,1.7324271.6997819.4218466,1.4654774.6316713,2.2959878.6316713s1.6148814-.2153175,2.3531128-.6459525,1.2534555-.9843086,1.5456722-1.6610208l1.0150683.2768368c-.2306973.5690534-.5965174,1.0765876-1.0963616,1.5226024s-1.0842775.7964551-1.7532998,1.0502222c-.6690223.2526685-1.3720999.3801013-2.1103314.3801013ZM369.5509562,279.7093874h9.4816606c-.0615193-.9337749-.3075964-1.7598911-.7382315-2.4794471s-.9963928-1.2853137-1.6961747-1.6983718-1.4720687-.6206857-2.317959-.6206857-1.6148814.2076276-2.3069734.6206857-1.2534555.9788158-1.6840906,1.6983718-.6767122,1.5456722-.7382315,2.4794471Z"/>
        <path class="st0" d="M382.5853558,274.1495816l3.8295758,4.9512043.1845579.3218777.1845579-.3218777,3.8065061-4.9512043h1.3380446l-4.6600862,6.0102149,4.6370165,5.9629769h-1.3380446l-3.7834363-4.927036-.1845579-.2999065-.1845579.2999065-3.8065061,4.927036h-1.3149748l4.6139467-5.9629769-4.6370165-6.0102149h1.3149748Z"/>
        <path class="st0" d="M394.1191241,286.1227734v-11.9731918h1.1534867v5.3060388h7.4053845v-5.3060388h1.1534867v11.9731918h-1.1534867v-5.629015h-7.4053845v5.629015h-1.1534867Z"/>
        <path class="st0" d="M407.4303604,286.1227734v-11.9501221h1.1534867v10.3846759l7.79757-10.4077456h1.0612078v11.9731918h-1.1534867v-10.2231877l-7.7052911,10.2231877h-1.1534867Z"/>
        <path class="st0" d="M421.0184336,286.1227734v-11.9731918h1.1534867v5.3060388h2.2146944l4.244831-5.3060388h1.3611143l-4.6831559,5.8135729,5.3060388,6.1596189h-1.4072538l-4.8215744-5.6059453h-2.2146944v5.6059453h-1.1534867Z"/>
        <path class="st0" d="M433.0135966,286.1227734v-11.9501221h1.1534867v10.3846759l7.79757-10.4077456h1.0612078v11.9731918h-1.1534867v-10.2231877l-7.7052911,10.2231877h-1.1534867Z"/>
      </g>
      <path class="st0" d="M149.705872,218.5630829c-.7501254-.7313135-1.1263639-1.7918356-1.1263639-3.1792149,0-1.3850278.3762385-2.4455499,1.1263639-3.1768634.7524769-.7313135,1.8788408-1.098146,3.3814431-1.098146s2.6289662.3668325,3.3814431,1.098146c.7501254.7313135,1.1263639,1.7918356,1.1263639,3.1768634,0,1.3873793-.3762385,2.4479014-1.1263639,3.1792149-.7524769.7313135-1.8788408,1.098146-3.3814431,1.098146s-2.6289662-.3668325-3.3814431-1.098146ZM156.7274221,256.1845766h-7.2802141v-31.7850948h7.2802141v31.7850948Z"/>
      <path class="st0" d="M200.7049942,253.5556104c-3.8141173,2.5231491-8.2255132,3.7858994-13.2318361,3.7858994-4.3925839,0-8.2748945-.9264872-11.6469316-2.7747586-3.3696856-1.8506229-5.9798399-4.4584257-7.8304628-7.8304628-1.8482714-3.3720371-2.7724071-7.2519962-2.7724071-11.6445801s.9617595-8.272543,2.8899816-11.6445801c1.9258706-3.3720371,4.5736487-5.9821914,7.9456858-7.8304628,3.3696856-1.8506229,7.174397-2.7747586,11.414134-2.7747586,5.0063229,0,9.4177188,1.2627503,13.2318361,3.7858994s6.4336775,6.0386272,7.8610322,10.5464341l-7.5130116,2.8899816c-1.0017349-2.9675808-2.6501296-5.347289-4.9404812-7.1367731-2.2927031-1.7918356-5.1732787-2.6877534-8.6393755-2.6877534-2.9299569,0-5.4907299.6443083-7.6870219,1.9352765s-3.8823105,3.0639919-5.0557042,5.3167196c-1.1757452,2.2527277-1.7636177,4.7876343-1.7636177,7.6000167,0,2.8500063.5878726,5.4037248,1.7636177,7.6564525,1.1733937,2.2550792,2.8594122,4.0163455,5.0557042,5.2885017,2.196292,1.2698048,4.7570649,1.9070587,7.6870219,1.9070587,3.4660967,0,6.3466724-.8959178,8.6393755-2.6877534,2.2903516-1.7918356,3.9387463-4.1691924,4.9404812-7.1367731l7.5130116,2.8899816c-1.4273546,4.507807-4.0469149,8.023285-7.8610322,10.5464341Z"/>
      <path class="st0" d="M223.7637084,255.1734358c-2.6195602-1.4438151-4.6512479-3.4566908-6.0974144-6.0386272-1.4438151-2.5819364-2.1657226-5.5283538-2.1657226-8.8416036,0-3.4284729.7501254-6.4336775,2.2527277-9.0156139s3.5742653-4.5665942,6.2126374-5.9539735c2.6383721-1.3850278,5.596547-2.0787174,8.8698215-2.0787174,3.275626,0,6.2314494.6936896,8.872173,2.0787174,2.6383721,1.3873793,4.7100351,3.3720371,6.2126374,5.9539735s2.2527277,5.587141,2.2527277,9.0156139c0,3.3132499-.7219075,6.2596673-2.1657226,8.8416036-1.4461666,2.5819364-3.4778542,4.5948121-6.0974144,6.0386272-2.6219117,1.4438151-5.6459283,2.1680741-9.0744012,2.1680741s-6.4524895-.724259-9.0720497-2.1680741ZM237.9808189,249.0478035c1.5402262-.9053238,2.7535952-2.1280987,3.640107-3.6706764.8865119-1.5402262,1.328592-3.2356507,1.328592-5.0839221,0-1.8506229-.4420802-3.5460474-1.328592-5.0862736s-2.0998809-2.7653526-3.640107-3.6706764c-1.5425777-.9029723-3.2568141-1.3568099-5.1450608-1.3568099s-3.6024832.4538376-5.1427093,1.3568099c-1.5402262.9053238-2.7535952,2.1304502-3.640107,3.6706764s-1.328592,3.2356507-1.328592,5.0862736c0,1.8482714.4420802,3.5436959,1.328592,5.0839221.8865119,1.5425777,2.0998809,2.7653526,3.640107,3.6706764s3.2544626,1.3568099,5.1427093,1.3568099,3.6024832-.4514861,5.1450608-1.3568099Z"/>
      <path class="st12" d="M264.7360759,228.0395889c2.426738-3.1956754,6.0480331-4.7946888,10.8638853-4.7946888,4.738253,0,8.37836,1.5026023,10.9226726,4.507807,2.541961,3.0052046,3.889365,7.1838029,4.0445634,12.5404979.0376238,1.3850278.0587873,4.2185736.0587873,8.4935831v7.3977886h-7.2237783v-7.3977886c0-4.2750094-.0211634-7.1085553-.0587873-8.4935831-.0775992-3.0052046-.7995067-5.4413486-2.1680741-7.3107834-1.3662159-1.8694348-3.4190669-2.8029765-6.1538502-2.8029765-1.7330484,0-3.3626312.3856444-4.8840454,1.1545818-1.5214142.7712888-2.7535952,1.9282221-3.6965428,3.4684482-.9452991,1.5402262-1.4179487,3.3720371-1.4179487,5.4907299l-.0564358,8.4935831v7.3977886h-7.2825655v-31.7850948h7.0521195v3.640107Z"/>
      <path class="st8" d="M305.188764,228.0395889c2.426738-3.1956754,6.0480331-4.7946888,10.8638853-4.7946888,4.738253,0,8.37836,1.5026023,10.9226726,4.507807,2.541961,3.0052046,3.889365,7.1838029,4.0445634,12.5404979.0376238,1.3850278.0587873,4.2185736.0587873,8.4935831v7.3977886h-7.2237783v-7.3977886c0-4.2750094-.0211634-7.1085553-.0587873-8.4935831-.0775992-3.0052046-.7995067-5.4413486-2.1680741-7.3107834-1.3662159-1.8694348-3.4190669-2.8029765-6.1538502-2.8029765-1.7330484,0-3.3626312.3856444-4.8840454,1.1545818-1.5214142.7712888-2.7535952,1.9282221-3.6965428,3.4684482-.9452991,1.5402262-1.4179487,3.3720371-1.4179487,5.4907299l-.0564358,8.4935831v7.3977886h-7.2825655v-31.7850948h7.0521195v3.640107Z"/>
      <path class="st0" d="M364.2511465,254.9994255c-2.8899816,1.5613896-6.1467957,2.3420844-9.7680908,2.3420844-3.5813198,0-6.685287-.7524769-9.3024957-2.2550792-2.6219117-1.5026023-4.6159755-3.5531019-5.9821914-6.1538502-1.3685674-2.6007483-2.0528511-5.481324-2.0528511-8.6393755,0-3.3532252.7524769-6.3184545,2.2550792-8.9003909,1.5026023-2.5819364,3.5719138-4.5854061,6.2126374-6.0104093,2.6383721-1.4250031,5.5941955-2.1375047,8.8698215-2.1375047,2.7347833,0,5.3261256.5290853,7.774027,1.5896075,2.4455499,1.0581706,4.4866435,2.800625,6.1256323,5.2297145,1.6366373,2.426738,2.5701789,5.5659776,2.8029765,9.4200703l.0564358,3.9293403h-26.4683751c.5408428,2.196292,1.6578007,3.9481523,3.3532252,5.2579324s3.8141173,1.9658459,6.3560784,1.9658459c2.0410936,0,3.8729046-.4232683,5.4907299-1.2721563,1.6178253-.8465365,2.6783475-1.9446825,3.1792149-3.2944379l7.049768,2.311515c-1.0793341,2.8523578-3.0639919,5.0580557-5.951622,6.6170938ZM363.0942133,237.0552028c-.1551984-2.3867627-1.0605221-4.1691924-2.7159713-5.3449375-1.6578007-1.1757452-3.6212951-1.7636177-5.8951863-1.7636177-2.3891142,0-4.4490197.6372539-6.1820681,1.9094101-1.7353999,1.2698048-2.911145,3.0028531-3.5272355,5.1991451h18.3204611Z"/>
      <path class="st0" d="M404.7884883,254.5667513c-2.9087935,1.8482714-6.2878851,2.7747586-10.1419778,2.7747586-3.5813198,0-6.6829355-.7524769-9.3024957-2.2550792-2.6219117-1.5026023-4.6159755-3.5531019-5.9821914-6.1538502-1.3685674-2.6007483-2.0504996-5.481324-2.0504996-8.6393755,0-3.275626.7219075-6.2032315,2.1657226-8.7851679,1.4461666-2.5795849,3.4778542-4.6042181,6.0974144-6.066845,2.6195602-1.4649785,5.6435768-2.196292,9.0720497-2.196292,3.6612704,0,6.9439509.8771059,9.855096,2.6289662,2.906442,1.7542118,4.9193178,4.5360248,6.0386272,8.3501422l-6.934545,2.311515c-.5784666-2.0810689-1.6578007-3.6589189-3.2380022-4.738253s-3.4872602-1.6178253-5.721176-1.6178253c-2.0787174,0-3.879959.4538376-5.4013733,1.3568099-1.5237657.9053238-2.6877534,2.1210443-3.4966661,3.6424585s-1.213369,3.2262447-1.213369,5.1144915.4044563,3.5930772,1.213369,5.1144915,1.9729004,2.7347833,3.4966661,3.640107c1.5214142.9053238,3.3226558,1.3568099,5.4013733,1.3568099,2.1586681,0,4.0351574-.5290853,5.6365223-1.587256,1.5966619-1.0605221,2.7042139-2.6501296,3.3226558-4.7688224l6.934545,2.311515c-.9241357,3.6212951-2.8429518,6.3560784-5.7517453,8.2067012Z"/>
      <path class="st0" d="M422.0954571,224.3994819v-8.6675933h7.3954371v8.6675933h8.5523703v6.5888759h-8.5523703l.0587873,10.7486623c.0752477,3.160403.5102734,5.3355316,1.3003742,6.5300886.7877493,1.1945571,2.0693115,1.7918356,3.8423352,1.7918356,1.5026023,0,3.1016157-.249258,4.7970403-.7524769l1.9634944,6.5888759c-2.6571841.9617595-5.2955562,1.4461666-7.9151164,1.4461666-2.9675808,0-5.2696898-.5784666-6.9063271-1.7353999-1.6389888-1.1545818-2.7747586-2.7724071-3.409661-4.853476-.6372539-2.0810689-.9923289-4.7006292-1.0699281-7.8586807l-.0564358-11.9055955h-6.9368965v-6.5888759h6.9368965Z"/>
      <g class="st11">
        <path class="st5" d="M62.6193342,236.5122287v-7.5269298c0-3.2441047,1.2871032-6.356488,3.5828148-8.6484388,2.2919508-2.2957116,5.404334-3.5828148,8.6484388-3.5828148h7.5269213c1.5580763,0,2.8226061-1.2645214,2.8226061-2.8225976s-1.2645298-2.8226061-2.8226061-2.8226061h-7.5269213c-4.7419657,0-9.2882338,1.8817431-12.6414783,5.2349875-3.3532445,3.3532445-5.2349705,7.8995041-5.2349705,12.6414698v7.5269298c0,1.5580678,1.2645298,2.8225891,2.8225976,2.8225891s2.8225976-1.2645214,2.8225976-2.8225891Z"/>
        <path class="st3" d="M104.9582816,216.7540453h7.5269383c3.2440878,0,6.356471,1.2871032,8.6484218,3.5828148,2.2957201,2.2919508,3.5828317,5.404334,3.5828317,8.6484388v7.5269298c0,1.5580678,1.2645129,2.8225891,2.8225891,2.8225891,1.5580593,0,2.8225891-1.2645214,2.8225891-2.8225891v-7.5269298c0-4.7419657-1.8817261-9.2882253-5.2349705-12.6414698-3.3532445-3.3532445-7.8995041-5.2349875-12.6414613-5.2349875h-7.5269383c-1.5580763,0-2.8225976,1.2645298-2.8225976,2.8226061s1.2645214,2.8225976,2.8225976,2.8225976Z"/>
        <path class="st10" d="M56.974139,259.0929927v7.5269298c0,4.7419572,1.8817261,9.2882253,5.2349705,12.6414613,3.3532445,3.3532445,7.8995126,5.234979,12.6414783,5.234979h7.5269213c1.5580763,0,2.8226061-1.2645214,2.8226061-2.8225891,0-1.5580763-1.2645298-2.8226061-2.8226061-2.8226061h-7.5269213c-3.2441047,0-6.356488-1.2870947-8.6484388-3.5828148-2.2957116-2.2919423-3.5828148-5.4043256-3.5828148-8.6484303v-7.5269298c0-1.5580678-1.2645298-2.8225891-2.8225976-2.8225891-1.5580763,0-2.8225976,1.2645214-2.8225976,2.8225891h0Z"/>
        <path class="st1" d="M104.9582816,284.4963629h7.5269383c4.7419572,0,9.2882168-1.8817261,12.6414613-5.234979,3.3532445-3.3532445,5.2349705-7.8995126,5.2349705-12.6414613v-7.5269298c0-1.5580678-1.2645298-2.8225891-2.8225891-2.8225891-1.5580763,0-2.8225891,1.2645214-2.8225891,2.8225891v7.5269298c0,3.2441047-1.2871116,6.3564795-3.5828317,8.6484303-2.2919508,2.2957201-5.404334,3.5828148-8.6484218,3.5828148h-7.5269383c-1.5580763,0-2.8225976,1.2645298-2.8225976,2.8226061,0,1.5580678,1.2645214,2.8225891,2.8225976,2.8225891Z"/>
        <path class="st4" d="M104.0174186,234.6304856v3.7634692c0,1.5580763,1.2645298,2.8225891,2.8225891,2.8225891,1.5580763,0,2.8226061-1.2645129,2.8226061-2.8225891v-3.7634692c0-1.5580593-1.2645298-2.8225891-2.8226061-2.8225891-1.5580593,0-2.8225891,1.2645298-2.8225891,2.8225891Z"/>
        <path class="st7" d="M77.6731769,234.6304856v3.7634692c0,1.5580763,1.2645298,2.8225891,2.8226061,2.8225891,1.5580678,0,2.8225891-1.2645129,2.8225891-2.8225891v-3.7634692c0-1.5580593-1.2645214-2.8225891-2.8225891-2.8225891-1.5580763,0-2.8226061,1.2645298-2.8226061,2.8225891Z"/>
        <path class="st9" d="M92.7270366,249.8198191v-9.5441382c0-1.5580678,1.2645214-2.8225891,2.8225891-2.8225891,1.5580763,0,2.8226061,1.2645214,2.8226061,2.8225891v11.2903905c0,1.0688237-.6059223,2.0473203-1.561854,2.5252819l-3.7634437,1.8817346c-1.3924906.696241-3.0898099.131713-3.786051-1.2645298-.696241-1.3924736-.1317215-3.0898014,1.2645298-3.786051l2.2016236-1.102688Z"/>
        <path class="st6" d="M104.8453726,258.9800922c.5118428-.5118343,1.2156139-.8279625,1.9946351-.8279625,1.5580763,0,2.8226061,1.2645298,2.8226061,2.8225976,0,.7790381-.3161282,1.4828093-.827971,1.9946436-.5118258.5118173,0,.0037523-.0037523.0075301-8.3737049,8.3736964-21.9522769,8.3736964-30.3259818,0-.0037523-.0037693-.0037523-.0075301-.0037523-.0075301-.5118343-.5118343-.827971-1.2156054-.827971-1.9946436,0-1.5580678,1.2645298-2.8225891,2.8226061-2.8225891.7790296,0,1.4828008.3161197,1.9946266.827954.5118343.5118343.0037693,0,.0075301.0037693,6.168312,6.168312,16.1715908,6.168312,22.3399028,0,.0037693-.0037693.0075386-.0037693.0075386-.0037693h-.000017Z"/>
      </g>
    </g>
  </g>
</svg>